<svg xmlns="http://www.w3.org/2000/svg" viewBox="0 0 8 5"><defs><style>.a{fill:#c82230;}.b{fill:#fefefe;}.c{fill:#232d65;}</style></defs><path class="a" d="M4.4,5H3.6V3.05s0,0,0,0H0V2H3.56s0,0,0-.05V0h.8V2s0,.05,0,.05H8V3H4.44s0,0,0,0Z"/><path class="b" d="M3.6,0V2s0,.05,0,.05H0V1.67H1.76L0,.56V.38H0L2,1.65l.07,0h.55l0,0L0,0,0,0H.9l0,0L3.31,1.51h0V0Z"/><path class="b" d="M4.4,5V3.05s0,0,0,0H8v.33H6.24L8,4.44v.19l0,0L6,3.35l-.07,0H5.34l0,0L8,5,8,5H7.08L4.69,3.49h0V5Z"/><path class="b" d="M8,2H4.44s0,0,0-.05V0h.27V1.52h0L6.75.22,7.1,0h.3l0,0L4.78,1.64l0,0H5.3l.07,0L7.72.17,8,0S8,0,8,0V.56L6.24,1.66H8Z"/><path class="b" d="M0,3H3.56s0,0,0,0V5H3.33V3.48l0,0-2,1.28L.9,5H.6l0,0L3.22,3.36l0,0H2.7l-.07,0L.28,4.83,0,5S0,5,0,5V4.44l1.76-1.1H0Z"/><path class="c" d="M3.33,0V1.52h0L.92,0l0,0Z"/><path class="c" d="M7.1,0,6.75.22l-2,1.29h0V0Z"/><path class="c" d="M.9,5l.35-.22L3.3,3.5l0,0V5Z"/><path class="c" d="M4.67,5V3.48h0L7.08,5H4.67Z"/><path class="a" d="M8,0,7.72.17,5.37,1.65l-.07,0H4.75l0,0L7.37,0l0,0Z"/><path class="a" d="M0,5l.27-.17L2.63,3.35l.07,0h.55l0,0L.63,5l0,0Z"/><path class="c" d="M0,.56l1.76,1.1H0Z"/><path class="c" d="M8,1.67H6.24L8,.56Z"/><path class="c" d="M0,3.33H1.76L0,4.44Z"/><path class="c" d="M8,4.44,6.24,3.34H8Z"/><path class="a" d="M0,0,0,0,2.63,1.64l0,0H2.11L2,1.65,0,.39H0V0S0,0,0,0Z"/><path class="a" d="M8,5,8,5,5.37,3.36l0,0h.55l.07,0L8,4.61l0,0V5S8,5,8,5Z"/></svg>