<svg xmlns="http://www.w3.org/2000/svg" viewBox="0 0 365.89 90.71"><defs><style>.a{fill:#fff;}.b{fill:#7f7f7f;}.c{fill:#bf2026;}</style></defs><title>wiver-logo-white</title><polygon class="a" points="64.78 0 92 62.45 117.56 3.39 129.49 3.39 92 90.51 64.79 27.92 37.55 90.51 0 3.39 11.93 3.39 37.68 63.12 64.78 0"/><path class="a" d="M165.79,3.39H178L204.56,63.3,231.32,3.39h12.3L204.41,90.71Z" transform="translate(-1.31)"/><path class="a" d="M254,3.25h46.89V14.81H265.47V35.92h35.46V47.35H265.47V76.43h35.46V87.85H254Z" transform="translate(-1.31)"/><path class="a" d="M316.33,3.25h18.33q13.68,0,22.28,6.81a21.25,21.25,0,0,1,8.6,17.42,22.42,22.42,0,0,1-5.57,15q-5.57,6.51-17.35,9.16l24.58,36.2H353.94L330.48,53.06h-2.59V87.85H316.33Zm11.56,10.23V43q25.56.54,25.56-14.8a12.84,12.84,0,0,0-3-8.8,15,15,0,0,0-8-4.65Q337.52,13.48,327.89,13.48Z" transform="translate(-1.31)"/><rect class="b" x="140.4" y="28.36" width="12.77" height="59.5"/><rect class="c" x="140.4" y="3.1" width="12.77" height="12.77"/></svg>