<?xml version="1.0" encoding="utf-8"?>
<!-- Generator: Adobe Illustrator 22.1.0, SVG Export Plug-In . SVG Version: 6.00 Build 0)  -->
<svg version="1.1" id="Layer_1" xmlns="http://www.w3.org/2000/svg" xmlns:xlink="http://www.w3.org/1999/xlink" x="0px" y="0px"
	 viewBox="0 0 453.5 490.4" style="enable-background:new 0 0 453.5 490.4;" xml:space="preserve">
<style type="text/css">
	.st0{fill:#1E1718;}
	.st1{fill:#FFFFFF;}
	.st2{fill:#F8F4F4;}
	.st3{fill:#E01F26;stroke:#1E1718;stroke-width:5;stroke-miterlimit:10;}
	.st4{fill:#FFFFFF;stroke:#1E1718;stroke-width:5;stroke-miterlimit:10;}
	.st5{fill:#5ABBEA;}
	.st6{fill:#56B7E1;}
</style>
<path class="st0" d="M398.2,256.7c0.5,1.4,1,2.7,1.6,4.1C399.3,259.4,398.8,258,398.2,256.7z"/>
<path class="st0" d="M376.2,459.3c-9.7-9.4-21.6-14.3-34.7-17c-6.7-1.4-13.4-0.7-20.2-1.3c1.5-10.3,2.3-20.5,2.2-30.8
	c0-1.1,0.1-2,0.5-2.7c-0.5-0.4-0.9-0.9-1.2-1.5c-1.5,0.1-3,0.2-4.6,0.2c-3,0.1-6,0.6-9,1.1c0,1-0.2,1.9-0.6,2.7
	c0.8,0.6,0.9,1.7,0.7,3.3c-0.8,8.3-1.7,16.5-2.2,24.8c-0.2,3.8-1.4,5.9-5.1,7.8c-10.9,5.5-12,12.4-3.5,21.4
	c7.6,8.1,16.9,14,27.4,17.8c5.7,2.1,11.4,3.9,17.1,5.8h19.7c0.7-1.9,2.3-0.9,3.5-1.1c7.2-1.4,13.3-4.6,15.8-11.9
	C384.5,470.7,381.6,464.4,376.2,459.3z M334.3,453.6c3.8-2.4,7.3-6,12.9-5.1c-3.9,2.9-8.8,3.5-11.3,7.7c-1.1,0.2-2.4,1-3.2-0.1
	C331.9,454.7,333.4,454.2,334.3,453.6z M367.4,485.1c-10.9,3.1-21.8,1.7-32.5-1.1c-6-1.5-11.6-3.9-17.1-6.6
	c-1.4-0.7-1.7-1.2-1.4-2.5c-2.5-1.7-4.7-4-7.4-4.9c-6.1-2-7.9-7.5-10.9-12c-1.8-2.6-1.7-5.7,1.7-7.3c2.6-1.2,4.9-5.1,8.7-0.9
	c3.1,3.5,7.2,3.2,10.5-0.5c1.3-1.5,2.3-3.2,4.7-2.2c1.2,2.4-4.2,4.5-0.7,6.7c3.7,2.3,7.5,4.8,12.1,4.7c1,0,2.1-0.9,1.1-2.2
	c2.4,1.4,3.5-1.1,5.1-2c4.1-2.1,8.1-4.7,13-3.6c2.3,0.5,5.2,0.9,5,4.5c5.7,1.3,11.6,2,15.6,7.3c3.8,5,3.8,8.4-1.4,12.1
	c-6.9,5-14.9,5.9-23.1,5.8c-5.4-0.1-10.6-1.6-16.4-1c13.1,5.3,33.1,5,44-4.9C376.9,481.2,372.3,483.7,367.4,485.1z"/>
<path class="st0" d="M183.2,283.5c-0.4,0-0.9-0.1-1.5-0.2c-5.6-1.4-11.1-2.9-16.4-5.2c-5.2-2.3-10.8-4-8-11.9
	c1.1-3.1-1.2-6.3-2.3-9.3c-5-3-6-7.4-5.9-13c0.1-5.2-2-10-6.3-13.5c0,1.7-0.1,3.3-0.1,5c5.7,12.4,2.1,23.8-3.8,35
	c0.4,0.2,0.8,0.4,1.2,0.7c4.4-3.7,5.5-9.5,8.2-14.3c4.9,4.6,6,9.2,3.4,15.5c-2.9,7-7.2,12.7-15.4,13.8c-1.7,0.2-3.7,0.3-4.8-1.2
	c-1.5-2,2.4-2,1.8-4c-1.4-0.9-2.4,0.5-3.4,1c-2.5,1.4-3,0.2-3.1-2c-0.2-4.4-0.4-8.8-0.7-13.2c-0.1-1.8,0.5-2.6,2.3-3.1
	c3.1-0.9,5.3-3.1,6.6-6c-0.9,0.4-1.8,0.4-2.7-0.3c-2.9,2.7-6.2,4.2-9.9,2.2c-3.5-1.9-4.7-5.2-4.6-9.5c0.3-8.9,2.5-16.2,11.3-20.1
	c0.1-1.9-3-1.8-2.4-3.9c-1.1,1.1-2.2,1-3.3,0.1c-0.9,0.9-1.9,0.7-2.9,0.1c-0.1,5.3-3.3,2.5-5.6,2.1c0.8,1.4-0.3,1.9-1.2,2.6
	c3.6,1.4,4.7,3.4,2.3,7c-1.2,1.8-1.8,4.5-1.6,6.6c0.5,5.4-2.4,5.9-6.5,5.5c-4.7-0.4-9.2-1.4-13.1-4c-2.9-2-5.4-4.5-4.8-8.6
	c0.6-4.1,3.5-6.1,7.1-7.6c3.6-1.5,7.3-0.3,10.8-1.1c-0.7-1-0.6-1.8,0.2-2.7c-1.4-4.1-0.6-8.4-1.3-12.5c0-0.2-0.1-0.5-0.1-0.7
	c-0.4,0-0.7,0-1.1,0c-1.1-0.1-2.1-0.2-3.2-0.3c0.3,0.6,0.4,1.4,0.3,2.4c-0.1,1.7-0.2,3.5,0.1,5.2c0.6,3.9-0.7,4.9-4.7,5.4
	c-9.9,1.1-14.3,9.2-10.5,18.4c0.8,1.9,0.5,2.3-1,3.5c-6.2,5.1-7.3,12.5-1.9,18.1c2.1,2.2,4.4,4.1,5.2,6.5c2,1.4,2.5,4.2,1.6,6.3
	c1,2.6,2,5.3,3.2,7.9c1,0.5,1.7,1.3,2.1,2.3c1.7,0.9,3.6,1.6,5.6,2c2.8,0.6,3.9,1.8,4,4.9c0.5,16.8,1,33.5,2.2,50.2
	c0.6,8.1,0.9,16.1,1.1,24.2c0.1,4,1.6,6.4,6.4,5.5c3.6-0.7,7.3-0.5,11-0.4c2.8,0.1,3.5-0.9,3.6-3.7c0.3-8.4-1-16.8-0.9-25.2
	c0.1-10.9-1.8-21.7-1.3-32.6c0.4-8.5-2.4-17-0.6-25.9c6.1,4.2,12,3.3,17.6-0.8c2.1-1.6,3.6-1.2,5.7,0c9,5.4,18.7,8.9,29.1,10.5
	c1,0.2,1.8,0.4,2.4,0.8C182.5,293.4,182.7,288.4,183.2,283.5z M87.6,262.3c-2.5-3.2-2.9-6.7-0.2-10.1c2.5-3.2,5.4-2.7,8.7-1.1
	c4.5,2.2,9.4,3,14.4,2.8c1.8-0.1,3.9-1.5,4.8,1.3c0.9,2.7,3.7,5.1,1.2,8.4c-3.4,4.4-8,5.6-13,5.9C97,269.3,91.5,267.5,87.6,262.3z
	 M108.2,287c-6.1,0.1-10.6-1.9-13.6-6.8c-1.3-2-1.1-3.9,0-6c1.2-2.2,3-1.1,4.6-1c5.7,0.6,11.1,0,15.8-3.5c2.1-1.6,3.2-1,4.6,0.7
	c3.8,4.6,2.5,10.4-3.2,14.1C113.7,286.4,110.8,287.2,108.2,287z M120,371.1c-3.4,0.8-5.5,0.7-5.6-4.1c-0.3-14.6-1-29.3-2.3-43.9
	c-0.8-9-0.7-17.9-1-26.9c-0.1-1.7-1.4-4.1,1.4-4.9c3.3-1,6.6-1.9,10-2.2c1.3-0.1,1,2.3,1,3.5c0.1,5.4-0.2,10.8,0.3,16.2
	c0.5,5.2,1,10.3,0.8,15.5c0.8,13.8,1.3,27.7,2.6,41.4C127.9,372.6,123.1,370.3,120,371.1z"/>
<path class="st0" d="M119,211.5c0.5,0.7,0.7,1.8,0.5,3.3c-0.2,1.9,0,3.9,1.1,5.5c1-0.5,1.9-0.7,2.8,0c0.1-0.3,0.3-0.5,0.6-0.6
	c0-0.8,0.1-1.6,0.1-2.4c-0.4-3.8-0.6-5.7,0.3-6.6C122.7,211.1,120.8,211.3,119,211.5z"/>
<path class="st0" d="M279.2,445.1c-2.4-1.3-4.1-2.6-4.4-5.4c-0.8-9.2-1.6-18.5-2.4-27.7c-0.2-1.9,0.1-3,1.1-3.4
	c-0.9-0.1-1.8-0.3-2.6-0.4c-4.4-0.7-8.6-1.6-12.8-2.7c0.3,0.8,0.4,1.7,0.4,2.8c-0.6,9.9,0.4,19.7,1.9,29.4c0.3,2.1-0.1,2.7-2.4,3.4
	c-4.2,1.3-8.4-0.2-12.2,0.4c-14.1,2.1-27.9,5.5-39.2,15c-6.1,5.1-10.5,11.2-8.5,19.6c2,8,9.1,10.3,16,12.6c0.4,0.1,0.8,0.1,1.1,0.2
	c26.4,4.4,48.6-4.1,67.3-22.6C290.9,457.9,289.6,450.8,279.2,445.1z M283.7,454.4c-1,3.4-2.4,7.3-5,9.3c-3.9,3-7.3,7-12,9
	c0,1-0.2,1.7-1.2,2.3c-15.1,8.2-31.1,12.5-48.3,10.1c-6-0.8-11.6-3.2-14-9.7c0-0.5-0.1-0.9-0.1-1.4c0.4,0.2,0.7,0.4,1.1,0.6
	c14.1,10.3,29.4,7.7,44.7,4.3c3.4-0.8,7.3-0.7,9.7-4c-2.3,0-4.2-0.2-5.6-2.7c-0.7-1.3-1.2-4.2-4.1-2.9c-0.2,2.7,3.1,3.4,3.3,5.8
	c-9.4,5.4-34.4,6.3-43.5-0.5c-3.2-2.4-6.1-4.9-4.8-9.6c1.2-4.2,8.3-9.6,13.4-9.7c8.3-0.2,16,2.1,22.9,6.8c0.9,0.6,1.6,1.7,3,1.4
	c1.6-1.3,0.1-2-0.6-2.5c-5.4-3.8-11-7-17.9-7.1c-1.3,0-2.8,0.3-3.6-1.2c5.2-4.8,10.7-3.9,16.1-0.5c1.1,0.7,1.8,0.2,2.6,0
	c-0.4-3.3-4.5-2.2-5.8-4.6c4.9-0.3,8.1,1.2,15.1,7.3c-2.1,0.2-3.8,0.4-5.5,0.6c3.1,2.7,13.6,0.2,15.1-3.6c0.7-1.7-0.3-2.5-1.4-3.3
	c-1.2-0.9-3.9,0.5-3.8-2.4c0-1.2,1.1-1.5,2.1-1.4c2.1,0.2,4.8-1.2,6,1.9c0.2,0.5,0.5,1.1,0.8,1.6c2.8,4.5,8,5.2,11.5,1.2
	c1.7-2,2.8-2.8,5.1-1.2C281.1,449.8,284.7,450.8,283.7,454.4z"/>
<path class="st0" d="M444.1,390.9c-4.2-3.5-9.1-6.1-11.8-11.3c-1.4-2.7-5-4.2-8.1-3.7c-4,0.7-4.9-1.4-6-4.4
	c-3.9-10.4-9.7-19.7-17.7-27.4c-0.6-0.6-1.1-1.2-1.4-1.7c-1,2.2-2.6,4.1-4.2,5.9c-1,1.1-4.4,3.9-4.2,5.6c0.1,0.7,0.1,1.4,0,2.1
	c0.1-0.2,0.3-0.4,0.4-0.6c6,6,10.3,12.9,13.2,20.8c0.7,1.9,1.1,3.3-1,4.7c-3.8,2.5-5.6,6.4-5.6,10.9c0,2.2-1.2,3.4-2.4,4.9
	c-5.6,7-9.1,14.6-7.3,23.9c1.5,7.5,5.9,12,13.2,13.5c2.4,0.5,3.5,1.4,4.7,3.4c6,9.9,16.8,11.3,25.3,3.2c1.5-1.4,2.8-1.5,4.6-1.6
	c9.2-0.3,14.6-5.8,14.4-15.1c-0.1-4.3,1.3-8,2.9-11.7v-4.6C451.1,401.5,449.3,395.3,444.1,390.9z M406.1,382.5
	c2.6,8.8,5.7,12.1,10.2,11c5.1-1.2,6.2-4.8,4.4-15c5,0.5,9.3,1.9,10.8,6.8c1.5,4.8-1.2,8.8-5,11.3c-6,4.1-13,5-19.9,2.6
	C399.1,396.5,398.9,388.4,406.1,382.5z M447.1,414.1c-3.2-0.7-3.7-4.9-8.1-5.6c2.8,4.9,6.6,8.5,6.8,13.8c0.1,4.7-0.8,8.9-5.6,11.1
	c-3.1,1.4-6.1,2.4-5.6-3.1c0.1-1.2,0.5-2.8-1.7-3.6c-2.2,4.8-1.6,11.2-7.9,13.7c-2.9,1.1-5.7,1.2-8.5,0.6c-5.9-1.4-9.5-7.3-9.3-14.7
	c2.5,0.4,2.2,3.3,3.9,4.4c0.5-5.1-3.9-11-8.8-11.6c-1-0.1-2.1-0.3-2.5,0.7c-0.4,1.1-0.1,2.5,1.3,2.7c4.5,0.5,3.8,3.9,2.5,5.9
	c-1.9,2.9-4.5,0.3-6.4-0.8c-4.7-2.9-6.8-9.7-5.1-16.1c1.2-4.9,3.3-9.4,7-13.6c5.7,6.2,13,6.4,20.6,5.1c8-1.3,13.3-5.7,15.8-13.3
	C445.4,395.1,449.9,404.6,447.1,414.1z"/>
<path class="st0" d="M142,228.1c0.3,0.8,0.6,1.5,0.9,2.2c0,1.7-0.1,3.3-0.1,5c-3.7-3.9-7.2-8.2-13.6-5.6c0.1-1.9-3-1.8-2.4-3.9
	c3.6,0,7.1,0,10.7-0.1c0.5,1,1.4,1.1,2.3,1C140.5,227.2,141.3,227.6,142,228.1z"/>
<path class="st0" d="M123.5,225.9c-0.9,0.9-1.9,0.7-2.9,0.1c-0.5-1.9-0.6-3.8-0.1-5.7c1-0.5,1.9-0.7,2.8,0
	C124.1,222.2,124.4,224.1,123.5,225.9z"/>
<path class="st1" d="M439,408.5c2.8,4.9,6.6,8.5,6.8,13.8c0.1,4.7-0.8,8.9-5.6,11.1c-3.1,1.4-6.1,2.4-5.6-3.1
	c0.1-1.2,0.5-2.8-1.7-3.6c-2.2,4.8-1.6,11.2-7.9,13.7c-2.9,1.1-5.7,1.2-8.5,0.6c-5.9-1.4-9.5-7.3-9.3-14.7c2.5,0.4,2.2,3.3,3.9,4.4
	c0.5-5.1-3.9-11-8.8-11.6c-1-0.1-2.1-0.3-2.5,0.7c-0.4,1.1-0.1,2.5,1.3,2.7c4.5,0.5,3.8,3.9,2.5,5.9c-1.9,2.9-4.5,0.3-6.4-0.8
	c-4.7-2.9-6.8-9.7-5.1-16.1c1.2-4.9,3.3-9.4,7-13.6c5.7,6.2,13,6.4,20.6,5.1c8-1.3,13.3-5.7,15.8-13.3c9.9,5.4,14.3,14.9,11.6,24.3
	C444,413.4,443.4,409.2,439,408.5z"/>
<path class="st2" d="M129.2,229.7c6.4-2.7,9.9,1.7,13.6,5.6c5.7,12.4,2.1,23.8-3.8,35c-0.3,0.3-0.5,0.7-0.8,1c0,0.5,0,0.9,0,1.4
	c0.2-0.3,0.4-0.5,0.7-0.8c0.8,0.1,1.1-0.4,1.3-1c4.4-3.7,5.5-9.5,8.2-14.3c4.9,4.6,6,9.2,3.4,15.5c-2.9,7-7.2,12.7-15.4,13.8
	c-1.7,0.2-3.7,0.3-4.8-1.2c-1.5-2,2.4-2,1.8-4c-1.4-0.9-2.4,0.5-3.4,1c-2.5,1.4-3,0.2-3.1-2c-0.2-4.4-0.4-8.8-0.7-13.2
	c-0.1-1.8,0.5-2.6,2.3-3.1c3.1-0.9,5.3-3.1,6.6-6c2.5-3.9,4.5-7.9,3.4-14c-1.2,5.7-3.9,9.6-6.1,13.7c-2.9,2.7-6.2,4.2-9.9,2.2
	c-3.5-1.9-4.7-5.2-4.6-9.5C118.2,241,120.4,233.6,129.2,229.7z"/>
<path class="st2" d="M359.2,455.2c5.7,1.3,11.6,2,15.6,7.3c3.8,5,3.8,8.4-1.4,12.1c-6.9,5-14.9,5.9-23.1,5.8
	c-5.4-0.1-10.6-1.6-16.4-1c13.1,5.3,33.1,5,44-4.9c-0.9,6.7-5.5,9.2-10.4,10.6c-10.9,3.1-21.8,1.7-32.5-1.1
	c-6-1.5-11.6-3.9-17.1-6.6c-1.4-0.7-1.7-1.2-1.4-2.5c1.6,0.2,3.6-1,4.6,1.3c6,3,6.5,3.1,7.4,1c2.8-6.5,7.9-10.8,13.4-15
	C347.1,458,353.9,458.5,359.2,455.2L359.2,455.2z"/>
<path class="st2" d="M124.6,324.3c0.8,13.8,1.3,27.7,2.6,41.4c0.7,7-4.1,4.6-7.3,5.4c-3.4,0.8-5.5,0.7-5.6-4.1
	c-0.3-14.6-1-29.3-2.3-43.9c-0.8-9-0.7-17.9-1-26.9c-0.1-1.7-1.4-4.1,1.4-4.9c3.3-1,6.6-1.9,10-2.2c1.3-0.1,1,2.3,1,3.5
	c0.1,5.4-0.2,10.8,0.3,16.2C124.4,313.9,124.9,319.1,124.6,324.3z"/>
<path class="st1" d="M248.8,469.2c-0.2,2.7,3.1,3.4,3.3,5.8c-9.4,5.4-34.4,6.3-43.5-0.5c-3.2-2.4-6.1-4.9-4.8-9.6
	c1.2-4.2,8.3-9.6,13.4-9.7c8.3-0.2,16,2.1,22.9,6.8c0.9,0.6,1.6,1.7,3,1.4c0,0,0-0.1,0-0.1c0.4,0.6,0.9,1.2,1.3,1.7l0.1,0.4l0.4,0.1
	c0.6,0.6,1.2,1.2,1.8,1.8l0.1,0.4l0.4,0.1c0.6,0.4,1.1,0.9,1.7,1.3L248.8,469.2z"/>
<path class="st0" d="M247.2,467.9l-0.4-0.1l-0.1-0.4c0.8-2,0.2-2.6-1.8-1.8l-0.4-0.1l-0.1-0.4c1.2-1.8,0.1-1.9-1.3-1.7
	c0,0,0,0.1,0,0.1c1.6-1.3,0.1-2-0.6-2.5c-5.4-3.8-11-7-17.9-7.1c-1.3,0-2.8,0.3-3.6-1.2c5.2-4.8,10.7-3.9,16.1-0.5
	c1.1,0.7,1.8,0.2,2.6,0c1.8,0.5,3,1.7,3.9,3.3c3.1,2.7,13.6,0.2,15.1-3.6c0.7-1.7-0.3-2.5-1.4-3.3c-1.2-0.9-3.9,0.5-3.8-2.4
	c0-1.2,1.1-1.5,2.1-1.4c2.1,0.2,4.8-1.2,6,1.9c0.2,0.5,0.5,1.1,0.8,1.6c2.8,4.5,8,5.2,11.5,1.2c1.7-2,2.8-2.8,5.1-1.2
	c2.3,1.6,5.9,2.6,4.8,6.2c-1,3.4-2.4,7.3-5,9.3c-3.9,3-7.3,7-12,9c-3.1-0.8-5.5,1.4-8.2,2.1c-2.3,0-4.2-0.2-5.6-2.7
	c-0.7-1.3-1.2-4.2-4.1-2.9c0,0,0.1,0,0.1,0C249.1,467.7,249,466.7,247.2,467.9z"/>
<path class="st0" d="M321.1,476.1c-1-2.3-3-1-4.6-1.3c-2.5-1.7-4.7-4-7.4-4.9c-6.1-2-7.9-7.5-10.9-12c-1.8-2.6-1.7-5.7,1.7-7.3
	c2.6-1.2,4.9-5.1,8.6-0.9c3.1,3.5,7.2,3.2,10.5-0.5c1.3-1.5,2.3-3.2,4.7-2.2c1.2,2.4-4.2,4.5-0.7,6.7c3.7,2.3,7.5,4.8,12.1,4.7
	c1.1,0,2.2-0.9,1-2.4l-0.1,0.1c2.5,1.6,3.6-1,5.3-1.9c4.1-2.1,8.1-4.7,13-3.6c2.3,0.5,5.2,0.9,5,4.5l0.1-0.1
	c-13.4-0.7-22.7,6.4-30.3,16.3C326.8,474.3,324.6,476.2,321.1,476.1z"/>
<path class="st2" d="M103.5,269.7c-6.4-0.3-12-2.2-15.9-7.3c-2.5-3.2-2.9-6.7-0.2-10.1c2.5-3.2,5.4-2.7,8.7-1.1
	c4.5,2.2,9.4,3,14.4,2.8c1.8-0.1,3.9-1.5,4.8,1.3c0.9,2.7,3.7,5.1,1.2,8.4C113.1,268.1,108.4,269.4,103.5,269.7z"/>
<path class="st2" d="M113.8,230.8c3.6,1.4,4.7,3.4,2.3,7c-1.2,1.8-1.8,4.5-1.6,6.6c0.5,5.4-2.4,5.9-6.5,5.5c-4.7-0.4-9.2-1.4-13.1-4
	c-2.9-2-5.4-4.5-4.8-8.6c0.6-4.1,3.5-6.1,7.1-7.6c3.6-1.5,7.3-0.3,10.8-1.1C109.6,230.5,111.9,230.1,113.8,230.8z"/>
<path class="st2" d="M406.1,382.5c2.6,8.8,5.7,12.1,10.2,11c5.1-1.2,6.2-4.8,4.4-15c5,0.5,9.3,1.9,10.8,6.8c1.5,4.8-1.2,8.8-5,11.3
	c-6,4.1-13,5-19.9,2.6C399.1,396.5,398.9,388.4,406.1,382.5z"/>
<path class="st2" d="M108.2,287c-6.1,0.1-10.6-1.9-13.6-6.8c-1.3-2-1.1-3.9,0-6c1.2-2.2,3-1.1,4.6-1c5.7,0.6,11.1,0,15.8-3.5
	c2.1-1.6,3.2-1,4.6,0.7c3.8,4.6,2.5,10.4-3.2,14.1C113.7,286.4,110.8,287.2,108.2,287z"/>
<path class="st2" d="M258.5,474.8c2.7-0.7,5.1-2.9,8.2-2.1c0,1-0.2,1.7-1.2,2.3c-15.1,8.2-31.1,12.5-48.3,10.1
	c-6-0.8-11.6-3.2-14-9.7c0.3-0.3,0.7-0.6,1-0.8c14.1,10.3,29.4,7.8,44.7,4.3C252.1,478.1,256.1,478.1,258.5,474.8z"/>
<path class="st2" d="M120.6,220.3c-1.1-1.7-1.3-3.7-1.1-5.5c0.2-1.5,0-2.6-0.5-3.3c-3.2,0.3-6.5,0.3-9.7,0.1
	c-0.6,0.7-1.4,1.1-2.5,1.3c0,0.2,0,0.4,0.1,0.7c0.7,4.1,0,8.4,1.3,12.5c2.3,0.5,4.8,0.8,6.8,2.2c2.3,0.4,5.5,3.2,5.6-2.1
	C120.2,224.2,120,222.2,120.6,220.3z"/>
<path class="st2" d="M243.5,455.4c-0.9-1.6-2.1-2.8-3.9-3.3c-0.4-3.3-4.5-2.2-5.8-4.6c4.9-0.3,8.1,1.2,15.1,7.3
	C247,455.1,245.3,455.2,243.5,455.4z"/>
<path class="st0" d="M132.3,257.1c2.2-4.1,4.9-7.9,6.1-13.7c1.1,6.1-1,10.1-3.4,14C134,257.8,133.1,257.8,132.3,257.1z"/>
<path class="st2" d="M336,456.2c-1.1,0.2-2.4,1-3.2-0.1c-0.9-1.4,0.6-1.9,1.5-2.4c3.8-2.4,7.3-6,12.9-5.1
	C343.3,451.4,338.4,452,336,456.2C335.9,456.2,336,456.2,336,456.2z"/>
<path class="st0" d="M108.2,226c2.3,0.5,4.8,0.8,6.8,2.2c0.8,1.4-0.3,1.9-1.2,2.6c-1.9-0.7-4.3-0.3-5.8-2.1
	C107.3,227.8,107.5,226.9,108.2,226z"/>
<path class="st2" d="M203.1,475.4c0-0.5-0.1-0.9-0.1-1.4c0.4,0.2,0.7,0.4,1.1,0.6C203.7,474.9,203.4,475.1,203.1,475.4z"/>
<path class="st0" d="M140.2,271c-0.2,0.7-0.5,1.2-1.3,1c-0.2-0.2-0.5-0.5-0.7-0.7c0.3-0.3,0.5-0.7,0.8-1
	C139.4,270.5,139.8,270.7,140.2,271z"/>
<path class="st0" d="M138.9,272c-0.2,0.3-0.4,0.5-0.7,0.8c0-0.5,0-0.9,0-1.4C138.5,271.5,138.7,271.8,138.9,272z"/>
<path class="st0" d="M321.1,476.1c3.6,0.1,5.7-1.8,7.9-4.7c7.6-9.8,16.9-16.9,30.3-16.3c-5.4,3.3-12.2,2.8-17.4,6.9
	c-5.5,4.2-10.6,8.5-13.4,15C327.6,479.2,327.1,479.1,321.1,476.1z"/>
<path class="st0" d="M243.1,463.3c1.4-0.2,2.5-0.1,1.3,1.7C244,464.5,243.5,463.9,243.1,463.3z"/>
<path class="st0" d="M244.9,465.6c2-0.8,2.6-0.2,1.8,1.8C246.1,466.8,245.5,466.2,244.9,465.6z"/>
<path class="st0" d="M247.2,467.9c1.8-1.2,1.9-0.2,1.7,1.3C248.4,468.8,247.8,468.3,247.2,467.9z"/>
<g>
	<g>
		<path class="st0" d="M124,231c2.1-4.3,12.4-2,14.8-0.2c3.7,2.6,6.1,7.1,6.2,11.6c0,2.6,4,2.6,4,0c-0.1-6.7-4.4-13.8-10.7-16.5
			c-4.9-2.1-15.1-2.5-17.9,3.1C119.5,231.3,122.9,233.3,124,231L124,231z"/>
	</g>
</g>
<g>
	<g>
		<path class="st0" d="M124.8,229c-1-3-0.4-6.3-0.6-9.4c-0.1-3-0.5-6-0.8-9c-0.3-2.5-4.3-2.6-4,0c0.4,3.5,0.8,6.9,0.8,10.4
			c0,3.1-0.3,6.1,0.7,9.1C121.8,232.5,125.6,231.5,124.8,229L124.8,229z"/>
	</g>
</g>
<g>
	<g>
		<path class="st0" d="M106.9,224.4c-0.2-2.3-0.2-4.5,0.1-6.7c0.3-2.1,0.6-3.9,0.3-6c-0.4-2.5-4.3-1.5-3.9,1.1
			c0.3,1.9-0.4,4-0.6,5.9c-0.2,1.9-0.1,3.8,0,5.7C103.1,226.9,107.1,226.9,106.9,224.4L106.9,224.4z"/>
	</g>
</g>
<g>
	<g>
		<path class="st0" d="M119.3,229.7c-5-3.6-11-4.5-17-4.9c-2.8-0.2-4.5,0.1-7,1.3c-2.5,1.2-4.8,1.4-6.3,3.9c-1.3,2.2,2.1,4.2,3.5,2
			c0.3-0.6,3.9-2.2,4.8-2.5c2.7-0.9,4.6-0.8,7.3-0.6c4.6,0.4,8.8,1.4,12.6,4.1C119.4,234.6,121.4,231.2,119.3,229.7L119.3,229.7z"/>
	</g>
</g>
<g>
	<g>
		<path class="st0" d="M156.6,262.9c0.2-5.8-3.8-11.1-5.1-16.6c-1.3-5.5-2.4-10.7-6.4-15c-1.8-1.9-4.6,0.9-2.8,2.8
			c3.9,4.2,4.4,9.7,5.7,15c1.2,4.6,4.7,9,4.5,13.8C152.5,265.4,156.5,265.4,156.6,262.9L156.6,262.9z"/>
	</g>
</g>
<g>
	<g>
		<path class="st0" d="M100.8,286.3c-5.4-1.5-5.1-7.4-5.7-11.6c-0.4-3.1-1.6-5.8-4-7.9c-2-1.6-4.8,1.2-2.8,2.8c4.3,3.5,2,9,4.1,13.4
			c1.5,3.2,4,6.1,7.4,7.1C102.3,290.8,103.3,287,100.8,286.3L100.8,286.3z"/>
	</g>
</g>
<g>
	<g>
		<path class="st0" d="M105.6,291.1c0.7,7.6,1.3,15.2,2,22.7c0.2,2.5,4.2,2.6,4,0c-0.7-7.6-1.3-15.2-2-22.7
			C109.3,288.5,105.3,288.5,105.6,291.1L105.6,291.1z"/>
	</g>
</g>
<g>
	<g>
		<path class="st0" d="M414.7,378.4c5.1,0.6,13.1-0.8,15.9,5c1.1,2.3,4.6,0.3,3.5-2c-3.5-7.4-12.8-6.2-19.3-7
			C412.2,374.1,412.2,378.1,414.7,378.4L414.7,378.4z"/>
	</g>
</g>
<g>
	<g>
		<path class="st0" d="M447.1,403.4c0.5,1.1,1.3,1.6,2,2.5c1.4,2,1,4.3,0.3,6.4c-1,3.3-2.5,6.2-3.2,9.6c-0.6,2.5,3.3,3.6,3.9,1.1
			c1-4.5,3.7-8.7,3.9-13.3c0.1-1.5,0.1-3.2-0.5-4.6c-0.7-1.5-2.2-2.3-3-3.8C449.4,399.1,446,401.1,447.1,403.4L447.1,403.4z"/>
	</g>
</g>
<g>
	<g>
		<path class="st0" d="M341.9,489.9c5.2,0.7,10.6,1.9,15.8,1.6c4.7-0.3,9.3-1.7,13.7-3.1c2.4-0.8,1.4-4.7-1.1-3.9
			c-4.7,1.5-9.4,3.1-14.4,3c-4.7,0-9.5-1-14.1-1.7C339.3,485.6,339.4,489.6,341.9,489.9L341.9,489.9z"/>
	</g>
</g>
<g>
	<g>
		<path class="st0" d="M270.8,452.2c-2.6-2.6-5.4-4.9-8.3-7.1c-2.1-1.5-4,1.9-2,3.5c1.4,1.1,2.6,2.1,3.8,3.4c1.3,1.4,4,0,3.3-1.9
			c-1.9-5.3-7-8.2-12.6-7.4c-6.4,0.9-1.8,5-0.1,8c1.3,0.6,1.4,1,0.3,1.3c-0.7,0-1.5,0-2.2,0.2c-0.8,0.2-1.3,0.4-2,0.9
			c-1.2,0.9-0.9,1.6-1.8,2.5c-0.2,0.2-2.6,0.2-3.9,0.2c-4.2-0.1-7.7-2.1-11.5-3.5c-4-1.5-8.1-2.2-12.4-2.5c-1.5-0.1-2.5,1.8-1.7,3
			c0.8,1.3,1,1.6,2.5,2.3c1.2,0.5,2.6,0.2,2.9-1.2c1.7-6.1,11.2,1.1,13.9,2.7c2.2,1.3,4.3-2.2,2-3.5c-3.4-2-8.4-6.4-12.7-5.9
			c-3.2,0.4-6.2,2.5-7.1,5.6c1-0.4,2-0.8,2.9-1.2c-0.4-0.3-0.7-0.5-1.1-0.8c-0.6,1-1.2,2-1.7,3c7.4,0.5,13.1,4.1,20.2,5.5
			c2.7,0.6,6.1,0.7,8.8,0c1.7-0.5,1.5-0.8,2.6-1.9c0.8-0.8,1.6-1.1,3-1.5c0.9-0.2,1.5-0.2,2.3-0.6c1.3-0.7,2.1-1.9,2.1-3.4
			c0-1.8-1-2.4-2.2-3.5c-0.5-0.4-1-0.9-1.5-1.4c-2.5-0.1-2.8-0.2-1-0.2c3.5,0,6.6,0.8,7.9,4.5c1.1-0.6,2.2-1.3,3.3-1.9
			c-1.4-1.5-2.9-2.8-4.6-4c-0.7,1.2-1.3,2.3-2,3.5c2.7,2,5.2,4.1,7.5,6.5C269.8,456.8,272.6,454,270.8,452.2L270.8,452.2z"/>
	</g>
</g>
<g>
	<g>
		<path class="st0" d="M235.5,458.7c2.9,0.4,5.3,3.8,7.8,5.3c2.5,1.4,5.1,2.1,8,2.4c2.6,0.3,2.5-3.7,0-4c-3.3-0.4-6.2-1.7-8.8-3.9
			c-1.9-1.6-3.4-3.3-5.9-3.7C234,454.5,232.9,458.3,235.5,458.7L235.5,458.7z"/>
	</g>
</g>
<g>
	<g>
		<path class="st0" d="M221.5,453.2c5.8,1.3,10.6,4.9,15.5,7.9c5.9,3.7,11.9,6.8,14.4,13.7c0.9,2.4,4.7,1.4,3.9-1.1
			c-2.5-6.9-7.2-10.4-13.2-14.2c-6.2-3.9-12.3-8.6-19.5-10.3C220,448.8,219,452.7,221.5,453.2L221.5,453.2z"/>
	</g>
</g>
<g>
	<g>
		<path class="st0" d="M256.3,476.1c5.1-0.1,10-0.8,14.1-4c2-1.6-0.8-4.4-2.8-2.8c-3.2,2.5-7.3,2.8-11.2,2.9
			C253.8,472.1,253.8,476.1,256.3,476.1L256.3,476.1z"/>
	</g>
</g>
<g>
	<g>
		<path class="st0" d="M253.2,476.9c2.1,0.1,4.3,0.3,6.1-0.9c2-1.3,4.6-1.5,6.9-1.9c2.5-0.5,1.5-4.4-1.1-3.9
			c-2.1,0.4-4.5,0.6-6.4,1.4c-0.7,0.3-1.2,0.9-1.9,1.2c-1,0.4-2.5,0.2-3.6,0.1C250.7,472.8,250.7,476.8,253.2,476.9L253.2,476.9z"/>
	</g>
</g>
<g>
	<g>
		<path class="st0" d="M379,468.7c-2.8,1.5-4.9,4-7.5,5.7c-5.1,3.3-10.7,4.4-16.7,4.8c-4.5,0.3-8.6-0.6-13-1.2
			c-5.7-0.7-10.4-1.2-15.3-4.6c-2.1-1.5-4.1,2-2,3.5c4.2,2.9,8.7,4.5,13.8,4.9c5.3,0.4,10.3,1.8,15.7,1.5c5.4-0.3,11.8-1,16.7-3.3
			c1.6-0.8,3.2-2,4.7-2.9c2.2-1.4,3.4-3.7,5.7-4.9C383.3,470.9,381.2,467.5,379,468.7L379,468.7z"/>
	</g>
</g>
<g>
	<g>
		<path class="st0" d="M329.6,486.6c8.5,4.6,17.5,5.9,27.2,5.6c9-0.3,18.4-2.6,23-11.1c1.2-2.3-2.2-4.3-3.5-2
			c-4.5,8.4-14.6,9.3-23.2,9.2c-4.1,0-8.9-0.1-12.8-1.3c-1.8-0.5-3.1-1.4-4.8-2.2c-1.3-0.6-2.8-0.9-4-1.6
			C329.3,481.9,327.3,485.4,329.6,486.6L329.6,486.6z"/>
	</g>
</g>
<polygon class="st3" points="142.8,1.6 206.8,57.8 212.4,142.8 156.2,206.8 71.2,212.4 7.2,156.2 1.6,71.2 57.8,7.2 "/>
<circle class="st4" cx="295.7" cy="298.9" r="111.7"/>
<g>
	<path class="st1" d="M42.9,122.1c-12.2,0.8-20-5.4-20.7-16.6l-0.2-3.4l14-0.9l0.2,3c0.2,3,2.1,5,5.2,4.8s4.4-2.1,4.2-5.4
		c-0.2-3.8-4.8-6.3-10-9.3c-6.6-3.7-14.1-8.3-14.7-17.5c-0.6-9.8,5.4-19.7,18.3-20.5c10.6-0.7,18.4,6.8,19,16.6l0.2,2.6l-14,0.9
		l-0.2-2.9c-0.2-2.7-2-4.3-4.1-4.2c-2.1,0.1-4.1,1.8-3.9,4.8c0.2,3.8,4.8,6.2,9.9,9.2c6.6,3.8,14.2,8.5,14.8,18.1
		C61.5,111.4,55.3,121.3,42.9,122.1z"/>
	<path class="st1" d="M87,68.9l3.1,48.6l-16,1l-3.1-48.6l-11.2,0.7l-0.9-13.9l38.5-2.5l0.9,13.9L87,68.9z"/>
	<path class="st1" d="M124.7,116.8c-11.4,0.7-20.5-6-21.2-16.8l-1.9-29.5c-0.7-10.8,7.5-18.6,18.9-19.3c11.3-0.7,20.5,5.9,21.1,16.7
		l1.9,29.5C144.2,108.2,136,116.1,124.7,116.8z M125.2,68.1c-0.1-2.1-1.9-3.2-3.8-3.1c-1.9,0.1-3.6,1.5-3.5,3.5l2,31.3
		c0.1,2.1,2,3.2,3.9,3c1.9-0.1,3.5-1.4,3.4-3.5L125.2,68.1z"/>
	<path class="st1" d="M172.1,90.2l-7,0.4l1.4,21.9l-16,1l-4-62.5l23-1.5c8.4-0.5,15.1,4.7,15.7,14.1l0.7,10.5
		C186.4,83.6,180.5,89.6,172.1,90.2z M170.2,65.4c-0.1-2.3-1.3-3-3-2.9l-3.9,0.3l1,16.3l3.9-0.3c1.7-0.1,2.7-1.1,2.6-3.3L170.2,65.4
		z"/>
</g>
<g>
	<path class="st0" d="M78.7,155.4c-4,0.2-6.6-1.9-6.9-5.9l-0.1-1.2l4.6-0.3l0.1,1.1c0.1,1.1,0.7,1.8,1.7,1.7c1-0.1,1.4-0.7,1.4-1.9
		c-0.1-1.4-1.6-2.2-3.3-3.3c-2.2-1.3-4.7-3-4.9-6.2c-0.2-3.4,1.8-6.9,6-7.2c3.5-0.2,6.1,2.4,6.3,5.9l0.1,0.9l-4.6,0.3l-0.1-1
		c-0.1-1-0.7-1.5-1.4-1.5c-0.7,0-1.4,0.6-1.3,1.7c0.1,1.4,1.6,2.2,3.3,3.2c2.2,1.4,4.7,3,4.9,6.4C84.8,151.7,82.8,155.1,78.7,155.4z
		"/>
	<path class="st0" d="M93.1,154.5c-3.8,0.2-6.8-2.2-7-5.9l-0.6-10.3c-0.2-3.8,2.5-6.5,6.3-6.7c3.7-0.2,6.8,2.1,7,5.9l0.6,10.3
		C99.6,151.5,96.9,154.3,93.1,154.5z M93.3,137.4c0-0.7-0.6-1.1-1.3-1.1c-0.6,0-1.2,0.5-1.1,1.2l0.7,11c0,0.7,0.7,1.1,1.3,1.1
		c0.6,0,1.2-0.5,1.1-1.2L93.3,137.4z"/>
	<path class="st0" d="M108.4,153.5c-4,0.2-7-2.3-7.3-6.3l-0.6-9.6c-0.3-4.1,2.5-6.9,6.5-7.2c3.8-0.2,6.3,2.2,6.6,6l0.2,2.5l-4.7,0.3
		l-0.2-2.5c-0.1-0.9-0.6-1.4-1.5-1.4c-0.9,0.1-1.4,0.7-1.4,1.5l0.6,10.4c0.1,0.9,0.6,1.4,1.5,1.4c0.9-0.1,1.4-0.7,1.4-1.5l-0.2-2.5
		l4.7-0.3l0.2,2.5C114.4,150.6,112.2,153.3,108.4,153.5z"/>
	<path class="st0" d="M116.3,152.5l-1.4-21.9l5.3-0.3l1.4,21.9L116.3,152.5z"/>
	<path class="st0" d="M131.5,151.6l-0.5-3l-3.1,0.2l-0.3,3.1l-4.8,0.3l2.6-22.2l6.2-0.4l5.3,21.7L131.5,151.6z M128.8,137.1
		l-0.7,7.5l2-0.1L128.8,137.1z"/>
	<path class="st0" d="M137.9,151.2l-1.4-21.9l5.3-0.3l1,17l5.7-0.3l0.3,5L137.9,151.2z"/>
</g>
<g>
	<path class="st0" d="M68.1,182.6l-6.8,0.4l-1.4-21.9l6.8-0.4c4.1-0.3,6.8,2.5,7,6.3l0.6,9C74.6,179.8,72.1,182.3,68.1,182.6z
		 M68.3,167.2c-0.1-1.2-0.6-1.9-1.7-1.8l-1,0.1l0.8,12.6l1-0.1c1.1-0.1,1.5-0.8,1.5-2L68.3,167.2z"/>
	<path class="st0" d="M83.4,182.2c-3.8,0.2-6.9-2.3-7.1-5.6l-1-16.5l5.5-0.3l1,16.5c0,0.7,0.6,1.1,1.3,1.1c0.7,0,1.2-0.5,1.2-1.2
		l-1-16.5l5.3-0.3l1,16.5C89.7,179.1,87.2,182,83.4,182.2z"/>
	<path class="st0" d="M105.2,180.3l-0.9-13.8l-0.7,5.7l-1.1,8.3l-3.3,0.2l-2-8.1l-1.3-5.5l0.9,13.8l-4.9,0.3l-1.4-21.9l7.1-0.4
		l2.2,8.5l0.7,3.3l0.3-3.3l1-8.7l7.1-0.4l1.4,21.9L105.2,180.3z"/>
	<path class="st0" d="M119.9,171.6l-2.4,0.1l0.5,7.7l-5.4,0.3l-1.4-21.9l7.8-0.5c2.9-0.2,5.1,1.7,5.3,5l0.2,3.7
		C124.8,169.4,122.8,171.5,119.9,171.6z M119.3,162.9c0-0.8-0.4-1.1-1-1l-1.3,0.1l0.4,5.7l1.3-0.1c0.6,0,0.9-0.4,0.9-1.1
		L119.3,162.9z"/>
	<path class="st0" d="M127,178.9l-1.4-21.9l5.4-0.3l1.4,21.9L127,178.9z"/>
	<path class="st0" d="M144,177.9l-3.6-7l-1.6-3.1l0.6,10.3l-4.9,0.3l-1.4-21.9l4.7-0.3l3.5,7.2l1.5,3.1l-0.6-10.5l4.8-0.3l1.4,21.9
		L144,177.9z"/>
	<path class="st0" d="M161.2,176.8l-0.7-2.1c-0.7,1.8-2.2,2.9-3.9,3c-3.7,0.2-6.2-2.5-6.4-5.7l-0.7-10.9c-0.2-3,2.4-6.2,6.5-6.5
		c4.1-0.3,6.9,2.6,7.1,5.6l0.2,2.8l-5.3,0.3l-0.2-2.7c0-0.7-0.5-1.2-1.4-1.2c-0.9,0.1-1.4,0.6-1.3,1.3l0.7,10.7
		c0,0.7,0.7,1.3,1.5,1.2c0.9-0.1,1.4-0.7,1.4-1.4l-0.1-1.9l-1.5,0.1l-0.2-3.6l6.7-0.4l0.7,11.1L161.2,176.8z"/>
</g>
<path class="st1" d="M356.7,355.4c0,1.4,0,2.7,0,4.1c0,0.6-0.2,0.9-0.9,0.9c-2.3,0-4.6,0-6.9,0c-0.6,0-0.8-0.2-0.8-0.8
	c0-2.7,0-5.4,0-8.1c0-0.5,0.2-0.7,0.7-0.7c2.3,0,4.7,0,7,0c0.6,0,0.8,0.2,0.8,0.8C356.7,352.8,356.7,354.1,356.7,355.4z"/>
<path class="st1" d="M313.8,320.9c0.1-4.1,1.3-7.7,4.2-10.7c5.1-5.3,16-5.8,21.1,0c0.2,0.2,0.4,0.4,0.6,0.6
	c2.5,3.4,3.2,7.2,3.1,11.4c0,0.9-0.3,1.2-1.2,1.1c-2.9,0-5.8,0-8.6,0c-0.9,0-1.1-0.3-1.1-1.1c0.1-1.1,0-2.1,0-3.2
	c-0.1-1.8-1.2-2.9-2.9-2.9c-1.8,0-3.1,1.1-3.3,2.9c-0.2,2.1,0.5,3.8,1.8,5.4c2.3,2.8,5.3,5,7.9,7.6c3.1,3,6,6.1,7.3,10.4
	c2.5,8.7-2.3,19.2-14,19.3c-2.2,0-4.3-0.2-6.4-0.9c-5.3-1.7-8.5-5.9-8.7-11.4c-0.1-1.5,0-3-0.1-4.4c0-0.7,0.2-1,0.9-1
	c3,0,5.9,0,8.9,0c0.8,0,0.9,0.3,0.9,1c0,1.1-0.1,2.1,0,3.2c0.1,2.2,1.5,3.7,3.6,3.7c2.2,0.1,3.4-1.1,3.6-3.3c0.2-3-1.4-5.1-3.2-7
	c-2.7-2.9-5.8-5.2-8.5-8c-2.8-3-5.1-6.2-5.7-10.4C313.9,322.3,313.8,321.6,313.8,320.9z"/>
<path class="st5" d="M263.2,256c-0.3-2.4-0.6-4.7-0.7-7.1c0.7-0.4,1.3-0.8,2-1.3c0.4,2.4,0.6,4.9,0.8,7.3
	C265.3,256.7,263.9,255.8,263.2,256z"/>
<path class="st6" d="M270.3,245.5c0-0.5-0.3-1.1,0.7-1.1c0.7,0,1.6-0.2,1.8,0.9c0.1,1,0.2,2,0.3,3c0.1,1.1-0.7,1.1-1.5,1.2
	c-1,0.1-0.9-0.5-0.9-1.1C270.5,247.4,270.4,246.5,270.3,245.5z"/>
<path class="st6" d="M252.8,275.4c0.9-0.1,1.2,0.3,1.3,1c0.1,1,0.2,1.9,0.3,2.9c0.1,1.2-0.8,1.1-1.6,1.3c-1,0.2-0.8-0.6-0.9-1.1
	c-0.1-0.9-0.1-1.9-0.3-2.8C251.5,275.5,252,275.3,252.8,275.4z"/>
<path class="st6" d="M269.1,277.5c0.5,2,1,4,1.4,6c0.2,1-0.6,0.7-1.1,0.7c-0.5,0.1-1,0.2-0.9-0.7c0.2-2,0.2-4,0.3-6.1
	C268.9,277.5,269,277.5,269.1,277.5z"/>
<path class="st6" d="M332.4,268.3c-0.1-0.8,0.3-1.4,1.3-1.5c1-0.1,1.3,0.7,1.4,1.6c0.3,3.4,0.7,6.7,1.1,10.1c0.1,1-0.2,1.6-1.2,1.7
	c-0.8,0.1-1.4-0.4-1.5-1.2C333.1,275.5,332.7,272.1,332.4,268.3z"/>
<path class="st6" d="M349.7,266.8c0-0.8-0.5-1.6,0.8-1.6c1.1,0,1.6,0.3,1.6,1.4c0.1,0.8,0.1,1.6,0.2,2.4c0.1,1.1-0.5,1.3-1.4,1.4
	c-1,0.2-1.1-0.4-1.1-1.1C349.9,268.3,349.8,267.5,349.7,266.8z"/>
<circle class="st6" cx="309" cy="310.6" r="76.9"/>
<g>
	<path class="st0" d="M234.1,248.3l0.5,4.2l4.2-0.5l0.5,4.5l-4.2,0.5l1,8.7l-5.9,0.7l-2.5-21.8l12.1-1.4l0.5,4.5L234.1,248.3z"/>
	<path class="st0" d="M251.2,264l-0.7-3l-3.5,0.4l-0.1,3.1l-5.3,0.6l2-22.3l6.8-0.8l6.8,21.4L251.2,264z M247.6,249.7l-0.4,7.5
		l2.2-0.3L247.6,249.7z"/>
	<path class="st0" d="M258.3,263.2l-2.5-21.8l5.9-0.7l2.5,21.8L258.3,263.2z"/>
	<path class="st0" d="M276.3,261.1c-0.9,0.1-1.6-1.6-1.8-3.2l-0.4-3.6c-0.1-0.6-0.6-1.4-1.4-1.3l-1.3,0.2l0.9,8.4l-5.9,0.7
		l-2.5-21.8l8.3-0.9c2.9-0.3,5.7,1.3,6.1,4.4l0.4,3.2c0.1,1.1-0.5,2.5-1.9,3.3c1.6,0.5,2.6,1.7,2.7,2.8l0.4,3.8
		c0.2,1.4,0.6,2.5,1.2,3.5l0,0.1L276.3,261.1z M272.9,245c-0.1-0.8-0.4-1-1.1-1l-1.4,0.2l0.6,5.1l1.4-0.2c0.7-0.1,1-0.4,0.9-1.2
		L272.9,245z"/>
</g>
<g>
	<path class="st0" d="M240.2,277.8l1.9,17l-5.9,0.7l-1.9-17l-4.1,0.5l-0.5-4.9l14.1-1.6l0.5,4.9L240.2,277.8z"/>
	<path class="st0" d="M257.5,293c-0.9,0.1-1.6-1.6-1.8-3.2l-0.4-3.6c-0.1-0.6-0.6-1.4-1.4-1.3l-1.3,0.2l0.9,8.4l-5.9,0.7l-2.5-21.8
		l8.3-0.9c2.9-0.3,5.7,1.3,6.1,4.4l0.4,3.2c0.1,1.1-0.5,2.5-2,3.3c1.6,0.5,2.6,1.7,2.7,2.8l0.4,3.8c0.2,1.4,0.6,2.5,1.2,3.5l0,0.1
		L257.5,293z M254.2,276.9c-0.1-0.8-0.4-1-1.1-1l-1.4,0.2l0.6,5.1l1.4-0.2c0.7-0.1,1-0.4,0.9-1.2L254.2,276.9z"/>
	<path class="st0" d="M272.4,291.4l-0.7-3l-3.5,0.4l-0.1,3.1l-5.3,0.6l2-22.3l6.8-0.8l6.8,21.4L272.4,291.4z M268.8,277.1l-0.4,7.5
		l2.2-0.3L268.8,277.1z"/>
	<path class="st0" d="M289.6,289.4l-4.2-6.7l-1.9-3l1.2,10.3l-5.2,0.6l-2.5-21.8l5.1-0.6l4.1,6.9l1.8,3l-1.2-10.5l5.2-0.6l2.5,21.8
		L289.6,289.4z"/>
	<path class="st0" d="M303.4,288.5c-4.5,0.5-7.4-1.5-7.9-5.4l-0.1-1.2l5.1-0.6l0.1,1c0.1,1,0.9,1.7,2,1.6c1.1-0.1,1.6-0.8,1.4-2
		c-0.2-1.3-1.9-2.1-3.8-3.1c-2.5-1.2-5.3-2.7-5.7-5.9c-0.4-3.4,1.7-7,6.4-7.5c3.9-0.4,6.8,2.1,7.2,5.5l0.1,0.9l-5.1,0.6l-0.1-1
		c-0.1-1-0.8-1.5-1.6-1.4c-0.8,0.1-1.5,0.7-1.4,1.7c0.2,1.3,1.9,2.1,3.8,3c2.5,1.2,5.4,2.7,5.7,6.1
		C310.1,284.3,308,287.9,303.4,288.5z"/>
	<path class="st0" d="M319.8,278.3l-2.6,0.3l0.9,7.7l-5.9,0.7l-2.5-21.8l8.4-0.9c3.1-0.3,5.6,1.4,6,4.6l0.4,3.7
		C324.9,275.7,322.9,277.9,319.8,278.3z M318.7,269.6c-0.1-0.8-0.5-1-1.1-1l-1.4,0.2l0.6,5.7l1.4-0.2c0.6-0.1,1-0.4,0.9-1.2
		L318.7,269.6z"/>
	<path class="st0" d="M335.1,284.9c-4.2,0.5-7.6-1.7-8.1-5.5l-1.2-10.3c-0.4-3.8,2.5-6.7,6.6-7.1c4.1-0.5,7.6,1.7,8,5.5l1.2,10.3
		C342.1,281.5,339.2,284.4,335.1,284.9z M334.5,267.8c-0.1-0.7-0.8-1.1-1.4-1c-0.7,0.1-1.3,0.6-1.2,1.3l1.2,11
		c0.1,0.7,0.8,1.1,1.5,1s1.3-0.6,1.2-1.3L334.5,267.8z"/>
	<path class="st0" d="M354.3,282.2c-0.9,0.1-1.6-1.6-1.8-3.2l-0.4-3.6c-0.1-0.6-0.6-1.4-1.4-1.3l-1.3,0.2l0.9,8.4l-5.9,0.7
		l-2.5-21.8l8.3-0.9c2.9-0.3,5.7,1.3,6.1,4.4l0.4,3.2c0.1,1.1-0.5,2.5-2,3.3c1.6,0.5,2.6,1.7,2.7,2.8l0.4,3.8
		c0.2,1.4,0.6,2.5,1.2,3.5l0,0.1L354.3,282.2z M350.9,266c-0.1-0.8-0.4-1-1.1-1l-1.4,0.2l0.6,5.1l1.4-0.2c0.7-0.1,0.9-0.4,0.9-1.2
		L350.9,266z"/>
	<path class="st0" d="M367.8,263.4l1.9,17l-5.9,0.7l-1.9-17l-4.1,0.5l-0.5-4.9l14.1-1.6l0.5,4.9L367.8,263.4z"/>
</g>
<path class="st1" d="M270.1,337.9l0,22.3l-12.8,0l0-22.3l-11.1-30.6l13.1,0l5.2,17.7l4.6-17.7l12.6,0L270.1,337.9z"/>
<path class="st1" d="M284.1,360.3l0-53l27.2,0l0,11.5l-14.4,0l0,9.3l9.4,0l0,10l-9.4,0l0,9.9l14.4,0l0,12.2L284.1,360.3z"/>
<path class="st1" d="M329.6,361.6c-9.7,0-15.6-5.6-15.6-15.1l0-2.9l11.1,0l0,2.5c0,2.5,1.4,4.4,3.9,4.4c2.4,0,3.6-1.5,3.6-4.3
	c0-3.3-3.5-5.6-7.4-8.3c-5.1-3.5-10.8-7.8-10.8-15.6c0-8.3,5.3-16.3,15.6-16.3c8.4,0,14.2,6.8,14.2,15v2.2l-11.1,0l0-2.5
	c0-2.3-1.4-3.7-3.1-3.7c-1.6,0-3.4,1.3-3.4,3.8c0,3.3,3.5,5.5,7.4,8.3c5.1,3.6,10.9,7.9,10.9,16.1
	C344.9,353.6,339.4,361.6,329.6,361.6z"/>
<path class="st1" d="M355.8,344.7l-3.4,0l-3.5-14.5l0-23l10.3,0l0,23L355.8,344.7z M349.8,360.2l0-10.1l8.7,0l0,10.1L349.8,360.2z"
	/>
</svg>
